<!-- Generated by IcoMoon.io -->
<svg version="1.1" xmlns="http://www.w3.org/2000/svg" width="16" height="16" viewBox="0 0 16 16">
<path d="M8.481-0.013c-0.004 0-0.005 0-0.006 0l0.004-0c-0.36 0.018-0.679 0.177-0.908 0.421l-0.001 0.001-7.286 7.59 7.286 7.59c0.244 0.264 0.593 0.429 0.98 0.429 0.736 0 1.333-0.597 1.333-1.333 0-0.368-0.149-0.701-0.389-0.942l0 0-4.234-4.411h9.029c0.008 0 0.018 0 0.028 0 0.736 0 1.333-0.597 1.333-1.333s-0.597-1.333-1.333-1.333c-0.010 0-0.020 0-0.029 0l0.001-0h-9.029l4.233-4.41c0.238-0.241 0.386-0.572 0.386-0.938 0-0.736-0.597-1.333-1.333-1.333-0.023 0-0.046 0.001-0.069 0.002l0.003-0z"></path>
</svg>
