<?xml version="1.0" encoding="UTF-8"?>
<svg xmlns="http://www.w3.org/2000/svg" version="1.1" viewBox="0 0 640 512">
  <defs>
    <style>
      .cls-1 {
        fill: #fff;
      }
    </style>
  </defs>
  <!-- Generator: Adobe Illustrator 28.7.1, SVG Export Plug-In . SVG Version: 1.2.0 Build 142)  -->
  <g>
    <g id="Ebene_1">
      <path class="cls-1" d="M352,124.5l-51.9-13c-6.5-1.6-11.3-7.1-12-13.8s2.8-13.1,8.7-16.1l40.8-20.4-43.2-32.4c-5.5-4.1-7.8-11.3-5.6-17.9s8.3-10.9,15.2-10.9h160c30.2,0,58.7,14.2,76.8,38.4l57.6,76.8c6.2,8.3,9.6,18.4,9.6,28.8,0,26.5-21.5,48-48,48h-21.5c-17,0-33.3-6.7-45.3-18.7l-13.2-13.3h-32v21.5c0,24.8,12.8,47.9,33.8,61.1l106.6,66.6c32.1,20.1,51.6,55.2,51.6,93.1,0,60.6-49.1,109.7-109.8,109.7H32.3c-3.3,0-6.6-.4-9.6-1.4-9.2-2.8-16.7-9.6-20.3-18.5-1.4-3.4-2.2-6.9-2.4-10.7-.2-3.7.3-7.3,1.3-10.7,2.8-9.2,9.6-16.7,18.6-20.4,3-1.2,6.2-2,9.5-2.2l403.9-36.1c8.3-.7,14.7-7.7,14.7-16.1s-1.7-8.4-4.7-11.4l-44.4-44.4c-30-30-46.9-70.7-46.9-113.1v-102.5ZM512,72.3v-.6.6ZM510.7,79.7l-46.4-11.6c-.2,1.3-.3,2.6-.3,3.9,0,13.3,10.7,24,24,24s19.5-6.8,22.7-16.3ZM130.9,116.5c16.3-14.5,40.4-16.2,58.5-4.1l130.6,87v27.5c0,32.8,8.4,64.8,24,93H112c-6.7,0-12.7-4.2-15-10.4s-.5-13.3,4.6-17.7l69.4-59.5-152.6,23.5c-7,1.1-13.9-2.6-16.9-9s-1.5-14.1,3.8-18.8l125.6-111.5Z"/>
    </g>
  </g>
</svg>