<?xml version="1.0" encoding="UTF-8"?>
<svg xmlns="http://www.w3.org/2000/svg" version="1.1" viewBox="0 0 448 512">
  <defs>
    <style>
      .cls-1 {
        fill: #fff;
      }
    </style>
  </defs>
  <!-- Generator: Adobe Illustrator 28.7.1, SVG Export Plug-In . SVG Version: 1.2.0 Build 142)  -->
  <g>
    <g id="Ebene_1">
      <path class="cls-1" d="M144,0c-26.5,0-48,21.5-48,48v128c0,8.8-7.2,16-16,16s-16-7.2-16-16v-26.7l-9,7.5c-14.6,12.2-23,30.2-23,49.2v38c0,38,16.9,74,46.1,98.3l49.9,41.7v96c0,17.7,14.3,32,32,32h160c17.7,0,32-14.3,32-32v-105.3c46.9-19,80-65,80-118.7v-112c0-26.5-21.5-48-48-48s-23.6,4.7-32.1,12.3c-1.9-24.8-22.6-44.3-47.9-44.3s-23.6,4.7-32.1,12.3c-1.9-24.8-22.6-44.3-47.9-44.3s-23.6,4.7-32.1,12.3c-1.9-24.8-22.6-44.3-47.9-44.3Z"/>
    </g>
  </g>
</svg>