<?xml version="1.0" encoding="UTF-8"?>
<svg xmlns="http://www.w3.org/2000/svg" version="1.1" viewBox="0 0 448 512">
  <defs>
    <style>
      .cls-1 {
        fill: #fff;
      }
    </style>
  </defs>
  <!-- Generator: Adobe Illustrator 28.7.1, SVG Export Plug-In . SVG Version: 1.2.0 Build 142)  -->
  <g>
    <g id="Ebene_1">
      <path class="cls-1" d="M159.3,5.4c7.8-7.3,19.9-7.2,27.7,0,27.6,25.9,53.5,53.8,77.7,84,11-14.4,23.5-30.1,37-42.9,7.9-7.4,20.1-7.4,28,0,34.6,33,63.9,76.6,84.5,118,20.3,40.8,33.8,82.5,33.8,111.9,0,127.6-99.8,235.4-224,235.4S0,404.1,0,276.5s17.8-85.3,45.4-131.7C73.3,97.7,112.7,48.6,159.3,5.4ZM225.7,416c25.3,0,47.7-7,68.8-21,42.1-29.4,53.4-88.2,28.1-134.4-4.5-9-16-9.6-22.5-2l-25.2,29.3c-6.6,7.6-18.5,7.4-24.7-.5-16.5-21-46-58.5-62.8-79.8-6.3-8-18.3-8.1-24.7-.1-33.8,42.5-50.8,69.3-50.8,99.4.1,68.5,50.7,109.1,113.8,109.1Z"/>
    </g>
  </g>
</svg>