<?xml version="1.0" encoding="UTF-8"?>
<svg xmlns="http://www.w3.org/2000/svg" version="1.1" viewBox="0 0 384 512">
  <defs>
    <style>
      .cls-1 {
        fill: #fff;
      }
    </style>
  </defs>
  <!-- Generator: Adobe Illustrator 28.7.1, SVG Export Plug-In . SVG Version: 1.2.0 Build 142)  -->
  <g>
    <g id="Ebene_1">
      <path class="cls-1" d="M40.1,467.1l-11.2,9c-3.2,2.5-7.1,3.9-11.1,3.9-9.8,0-17.8-8-17.8-17.8V192C0,86,86,0,192,0s192,86,192,192v270.2c0,9.8-8,17.8-17.8,17.8s-7.9-1.4-11.1-3.9l-11.2-9c-13.4-10.7-32.8-9-44.1,3.9l-30.5,35c-3.3,3.8-8.2,6-13.3,6s-9.9-2.2-13.3-6l-26.6-30.5c-12.7-14.6-35.4-14.6-48.2,0l-26.6,30.5c-3.3,3.8-8.2,6-13.3,6s-9.9-2.2-13.3-6l-30.5-35c-11.3-12.9-30.7-14.6-44.1-3.9ZM160,192c0-17.7-14.3-32-32-32s-32,14.3-32,32,14.3,32,32,32,32-14.3,32-32ZM256,224c17.7,0,32-14.3,32-32s-14.3-32-32-32-32,14.3-32,32,14.3,32,32,32Z"/>
    </g>
  </g>
</svg>