<?xml version="1.0" encoding="UTF-8"?>
<svg xmlns="http://www.w3.org/2000/svg" version="1.1" viewBox="0 0 512 512">
  <defs>
    <style>
      .cls-1 {
        fill: #fff;
      }
    </style>
  </defs>
  <!-- Generator: Adobe Illustrator 28.7.1, SVG Export Plug-In . SVG Version: 1.2.0 Build 142)  -->
  <g>
    <g id="Ebene_1">
      <path class="cls-1" d="M416,398.9c58.5-41.1,96-104.1,96-174.9C512,100.3,397.4,0,256,0S0,100.3,0,224s37.5,133.8,96,174.9v65.1c0,26.5,21.5,48,48,48h48v-48c0-8.8,7.2-16,16-16s16,7.2,16,16v48h64v-48c0-8.8,7.2-16,16-16s16,7.2,16,16v48h48c26.5,0,48-21.5,48-48v-65.1ZM96,256c0-35.3,28.7-64,64-64s64,28.7,64,64-28.7,64-64,64-64-28.7-64-64ZM352,192c35.3,0,64,28.7,64,64s-28.7,64-64,64-64-28.7-64-64,28.7-64,64-64Z"/>
    </g>
  </g>
</svg>