<?xml version="1.0" encoding="UTF-8"?>
<svg xmlns="http://www.w3.org/2000/svg" version="1.1" viewBox="0 0 512 512">
  <defs>
    <style>
      .cls-1 {
        fill: #fff;
      }
    </style>
  </defs>
  <!-- Generator: Adobe Illustrator 28.7.1, SVG Export Plug-In . SVG Version: 1.2.0 Build 142)  -->
  <g>
    <g id="Ebene_1">
      <path class="cls-1" d="M352,320c88.4,0,160-71.6,160-160s-2.2-30.1-6.2-44.2c-3.1-10.8-16.4-13.2-24.3-5.3l-76.8,76.8c-3,3-7.1,4.7-11.3,4.7h-57.4c-8.8,0-16-7.2-16-16v-57.4c0-4.2,1.7-8.3,4.7-11.3l76.8-76.8c7.9-7.9,5.4-21.2-5.3-24.3-14.1-4-28.9-6.2-44.2-6.2-88.4,0-160,71.6-160,160s3.4,37.5,9.5,54.5L19.9,396.1c-12.7,12.7-19.9,30-19.9,48,0,37.5,30.4,67.9,67.9,67.9s35.3-7.2,48-19.9l181.6-181.6c17,6.2,35.4,9.5,54.5,9.5ZM80,408c13.3,0,24,10.7,24,24s-10.7,24-24,24-24-10.7-24-24,10.7-24,24-24Z"/>
    </g>
  </g>
</svg>